<?xml version="1.0" encoding="UTF-8"?><svg id="a" xmlns="http://www.w3.org/2000/svg" width="654" height="234" viewBox="0 0 654 234"><defs><style>.c{fill:none;}.d{fill:#8b1c24;}.e{fill:#414042;}</style></defs><path class="e" d="m63.98,5.51c21,0,39.3,6.3,52.2,18.6,12.9,12.3,20.4,30.6,20.4,53.7s-7.5,41.4-20.4,53.7c-12.9,12.3-31.2,18.6-52.2,18.6h-17.4v77.4H.97V5.51h63Zm-17.4,102.6h16.8c9,0,15.6-2.1,19.8-7.2,4.5-4.8,6.6-12,6.6-23.1s-2.1-18.6-6.6-23.4c-4.2-4.8-10.8-6.9-19.8-6.9h-16.8v60.6Z"/><path class="e" d="m369.38,157.61c.6,23.1,8.4,33.9,28.2,33.9,16.8,0,25.8-10.5,25.8-26.4,0-20.1-24-24.9-48-34.2-24-9.6-48-23.4-48-60.9,0-42,25.8-69,68.1-69s63.9,19.8,70.5,63.6h-44.4c-.6-16.2-9.6-25.8-24.3-25.8s-23.1,10.8-23.1,24.3c0,21,24,24.9,48,34.5,24,9.6,48,24.6,48,66.9s-31.2,67.2-73.5,67.2c-50.7,0-72.9-27.3-72.9-74.1h45.6Z"/><path class="e" d="m490.28,116.21c0-69.3,27-114.9,81.6-114.9s81.6,45.6,81.6,115.2-27,115.2-81.6,115.2-81.6-45.6-81.6-115.2v-.3Zm46.8.6c0,53.1,11.4,72.9,34.8,72.9s34.8-19.8,34.8-73.2-11.4-73.2-34.8-73.2-34.8,19.8-34.8,73.2v.3Z"/><path class="d" d="m150,81.5c1.84,108.43,163.15,108.45,165,0-1.84-108.43-163.15-108.45-165,0Zm44,0c.86-50.61,76.14-50.6,77,0-.86,50.61-76.14,50.6-77,0Z"/><polygon class="d" points="194.18 154 232.56 233.5 270.94 154 194.18 154"/><rect id="b" class="c" width="654" height="234"/></svg>